# xmcd
#
# Track frame offsets: 
#        182
#        13892
#        25782
#        36457
#        47862
#        60005
#        71872
#        84800
#        99527
#        111340
#        124780
#
# Disc length: 1825 seconds
#
# Revision: 3
# Processed by: cddbd v1.5.2PL0 Copyright (c) Steve Scherf et al.
# Submitted via: ExactAudioCopyFreeDBPlugin 1.0
#
DISCID=8e071f0b
DTITLE=Memphis Slim - Memphis Slim
DYEAR=1990
DGENRE=Blues
TTITLE0=I Guess I'm A Fool
TTITLE1=Rockin' The Pad
TTITLE2=Havin' Fun
TTITLE3=Marack
TTITLE4=Mother Earth
TTITLE5=Really Got The Blues
TTITLE6=Tia Juana
TTITLE7=I'm Crying
TTITLE8=Reverend Bounce
TTITLE9=Slim's Blues
TTITLE10=Blues For My Baby
EXTD=
EXTT0=
EXTT1=
EXTT2=
EXTT3=
EXTT4=
EXTT5=
EXTT6=
EXTT7=
EXTT8=
EXTT9=
EXTT10=
PLAYORDER=
